<svg xmlns="http://www.w3.org/2000/svg" width="18" height="18" viewBox="0 0 18 18"><defs><style>.a{fill:#092f56;}</style></defs><path class="a" d="M17.946,5.29a6.606,6.606,0,0,0-.418-2.185,4.412,4.412,0,0,0-1.039-1.594A4.412,4.412,0,0,0,14.9.472,6.606,6.606,0,0,0,12.711.054C11.75.01,11.444,0,9,0S6.25.01,5.29.054A6.606,6.606,0,0,0,3.105.472a4.412,4.412,0,0,0-1.6,1.039A4.412,4.412,0,0,0,.472,3.1,6.606,6.606,0,0,0,.054,5.289C.01,6.25,0,6.556,0,9s.01,2.75.054,3.71A6.606,6.606,0,0,0,.472,14.9a4.412,4.412,0,0,0,1.039,1.594,4.411,4.411,0,0,0,1.594,1.039,6.606,6.606,0,0,0,2.184.418C6.25,17.99,6.556,18,9,18s2.75-.01,3.71-.054a6.606,6.606,0,0,0,2.185-.418A4.6,4.6,0,0,0,17.528,14.9a6.606,6.606,0,0,0,.418-2.184C17.99,11.75,18,11.444,18,9S17.99,6.25,17.946,5.29Zm-1.62,7.347a4.978,4.978,0,0,1-.31,1.67,2.98,2.98,0,0,1-1.708,1.709,4.979,4.979,0,0,1-1.671.31c-.95.043-1.234.052-3.637.052s-2.688-.009-3.637-.052a4.979,4.979,0,0,1-1.67-.31,2.788,2.788,0,0,1-1.036-.673,2.788,2.788,0,0,1-.673-1.035,4.978,4.978,0,0,1-.31-1.671C1.631,11.687,1.622,11.4,1.622,9s.009-2.688.052-3.637a4.979,4.979,0,0,1,.31-1.67,2.788,2.788,0,0,1,.673-1.036,2.788,2.788,0,0,1,1.035-.673,4.979,4.979,0,0,1,1.671-.31C6.313,1.631,6.6,1.622,9,1.622s2.688.009,3.637.052a4.979,4.979,0,0,1,1.67.31,2.788,2.788,0,0,1,1.036.673,2.788,2.788,0,0,1,.673,1.035,4.979,4.979,0,0,1,.31,1.671c.043.95.052,1.234.052,3.637S16.369,11.688,16.326,12.637ZM9,4.378A4.622,4.622,0,1,0,13.622,9,4.622,4.622,0,0,0,9,4.378ZM9,12a3,3,0,1,1,3-3A3,3,0,0,1,9,12Zm5.884-7.8a1.08,1.08,0,1,1-1.08-1.08A1.08,1.08,0,0,1,14.884,4.2Z"/></svg>