<svg xmlns="http://www.w3.org/2000/svg" width="22" height="18" viewBox="0 0 22 18"><defs><style>.a{fill:#092f56;}</style></defs><path class="a" d="M1.7,5.929l9.167,6.043a2.2,2.2,0,0,0,2.215,0L22.25,5.929c.6-.395,1.162-1.929.066-1.929H1.637C.54,4,1.105,5.535,1.7,5.929Zm20.825,3.3-9.444,6.041a1.769,1.769,0,0,1-1.107.3,1.769,1.769,0,0,1-1.107-.3c-.416-.267-8.718-5.608-9.4-6.042C1,8.926,1,9.285,1,9.56V20.5c0,.63.692,1.5,1.222,1.5H21.778c.53,0,1.222-.87,1.222-1.5V9.562c0-.276,0-.634-.473-.329Z" transform="translate(-1 -4)"/></svg>